<?xml version="1.0" encoding="UTF-8"?>
<!DOCTYPE svg PUBLIC "-//W3C//DTD SVG 1.1//EN" "http://www.w3.org/Graphics/SVG/1.1/DTD/svg11.dtd">
<svg xmlns="http://www.w3.org/2000/svg" xml:space="preserve" width="169.333mm" height="169.333mm" version="1.1" style="shape-rendering:geometricPrecision; text-rendering:geometricPrecision; image-rendering:optimizeQuality; fill-rule:evenodd; clip-rule:evenodd"
viewBox="0 0 16933.32 16933.32"
 xmlns:xlink="http://www.w3.org/1999/xlink"
 xmlns:xodm="http://www.corel.com/coreldraw/odm/2003">
 <defs>
  <style type="text/css">
   <![CDATA[
    .fil0 {fill:#ED1C24}
    .fil1 {fill:white}
   ]]>
  </style>
 </defs>
 <g id="Camada_x0020_1">
  <metadata id="CorelCorpID_0Corel-Layer"/>
  <g id="_3183339685504">
   <path class="fil0" d="M7820.25 1934.31c-5224.85,-985.83 -7985.11,1232.29 -7812.62,5397.34 394.32,3228.56 2760.29,6038.15 7689.39,8330.18 5323.42,-1183 8847.7,-3450.37 9217.4,-7738.68 295.75,-3820.04 -2883.53,-8379.47 -9094.17,-5988.84z"/>
   <path class="fil1" d="M13883.03 2870.85c-4165.08,-2316.69 -8921.65,665.41 -8995.6,4781.2 345.04,936.54 665.45,1725.19 1010.49,2686.36 1306.2,-640.79 2612.43,-1109.06 3943.3,-1725.19 -1256.92,-566.84 -369.7,-2538.46 837.93,-2242.71 1651.24,271.09 1306.2,2439.89 147.86,2489.18 -1577.33,714.73 -3154.62,1454.09 -4731.92,2168.79 591.47,1281.55 1182.97,2587.78 1774.48,3869.33 4879.8,-1010.45 7689.36,-3721.47 8132.97,-6062.75 394.32,-2637.1 -295.75,-4633.38 -2119.51,-5964.21z"/>
  </g>
 </g>
</svg>
